<?xml version="1.0" encoding="utf-8"?>
<!-- Generator: Adobe Illustrator 23.0.1, SVG Export Plug-In . SVG Version: 6.00 Build 0)  -->
<svg version="1.1" id="Layer_1" xmlns="http://www.w3.org/2000/svg" xmlns:xlink="http://www.w3.org/1999/xlink" x="0px" y="0px"
	 viewBox="0 0 448 448" style="enable-background:new 0 0 448 448;" xml:space="preserve">
<path d="M364,200l84-20l-20-99.8c0-6.5-4-12.4-10.1-14.8l-122-53c-0.8-0.3-1.6-0.4-2.5-0.4h-0.3c-8.8,30.3-36.6,52-69.1,52
	c-32.5,0-60.4-21.7-69.1-52h-0.3c-0.8,0-1.6,0.1-2.3,0.3L29.6,65.6c-5.9,2.5-9.7,8.3-9.6,14.6L0,180l84,20l11-38h5L90,448h268
	l-10-286h5L364,200z"/>
</svg>
