<?xml version="1.0" encoding="utf-8"?>
<!-- Generator: Adobe Illustrator 23.0.4, SVG Export Plug-In . SVG Version: 6.00 Build 0)  -->
<svg version="1.1" id="Layer_1" xmlns="http://www.w3.org/2000/svg" xmlns:xlink="http://www.w3.org/1999/xlink" x="0px" y="0px"
	 viewBox="0 0 60 60" style="enable-background:new 0 0 60 60;" xml:space="preserve">
<style type="text/css">
	.st0{enable-background:new    ;}
	.st1{fill:#B2B2B2;}
</style>
<g class="st0">
	<path class="st1" d="M51.5,30.6c0-3.3,2-5.9,5.1-7.7c-0.6-1.9-1.3-3.6-2.2-5.3c-3.4,0.9-6.2-0.4-8.6-2.8s-3.1-5.1-2.2-8.6
		C42,5.3,40.2,4.6,38.4,4c-1.8,3.1-5,5.1-8.4,5.1c-3.3,0-6.6-2-8.4-5.1c-1.9,0.6-3.6,1.3-5.3,2.2c0.9,3.4,0.2,6.2-2.2,8.6
		c-2.3,2.3-5.1,3.7-8.6,2.8C4.7,19.3,4,21,3.4,22.9c3.1,1.8,5.1,4.4,5.1,7.7s-2,6.6-5.1,8.4c0.6,1.9,1.3,3.6,2.2,5.3
		c3.4-0.9,6.2-0.2,8.6,2.2c2.3,2.3,3.1,5.1,2.2,8.6c1.7,0.9,3.4,1.6,5.3,2.2c1.8-3.1,5-5.1,8.4-5.1c3.3,0,6.6,2,8.4,5.1
		c1.9-0.6,3.6-1.3,5.3-2.2c-0.9-3.4-0.2-6.2,2.2-8.6c2.3-2.3,5.1-3.7,8.6-2.8c0.9-1.7,1.6-3.4,2.2-5.3
		C53.5,36.6,51.5,33.9,51.5,30.6z M30,42.2c-6.4,0-11.6-5.2-11.6-11.6c0-6.4,5.2-11.6,11.6-11.6c6.4,0,11.6,5.2,11.6,11.6
		C41.6,37,36.4,42.2,30,42.2z"/>
</g>
</svg>
